<?xml version="1.0" encoding="utf-8"?>
<!-- Generator: Adobe Illustrator 28.4.1, SVG Export Plug-In . SVG Version: 6.00 Build 0)  -->
<svg version="1.1" id="Layer_1" xmlns="http://www.w3.org/2000/svg" xmlns:xlink="http://www.w3.org/1999/xlink" x="0px" y="0px"
	 viewBox="0 0 6818.4 7025.2" enable-background="new 0 0 6818.4 7025.2" xml:space="preserve">
<g transform="matrix(.24008588 0 0 .24008588 -2.289055 -240.92061)">
	<path fill="#FBC712" d="M538.5,1134.8l-294.2-26.9L13.4,1003.5h262.6l262.6,131.1"/>
	<path fill="#FBC712" d="M538.5,1134.8l311.8-36.1l213.4-95.2H801.1l-262.6,131.1"/>
	<path fill="#F6871F" d="M538.5,1922.5l262.6,31.3l262.6,100H801.1l-262.6-131.4"/>
	<path fill="#F15E22" d="M538.5,1922.5l-262.6,28.2l-262.6,103h262.6l262.6-131.4"/>
	<path fill="#FCEE23" d="M144.6,1528.6l-38.8,308.3l-92.5,216.8v-262.5l131.3-262.7"/>
	<path fill="#FCEE23" d="M144.6,1528.6l-29.5-282.3L13.4,1003.5V1266l131.3,262.4"/>
	<path fill="#F04923" d="M932.3,1528.6l37.9-285.4l93.4-239.7V1266l-131.3,262.4"/>
	<path fill="#F04923" d="M932.3,1528.6l25.6,289.8l105.7,235.3v-262.5l-131.3-262.7"/>
	<path fill="#F8B218" d="M13.4,1003.5l525.1,131.3v393.6H144.6L13.4,1003.7"/>
	<path fill="#F89D1C" d="M13.4,2053.7l131.3-525.1l393.9-0.2v393.8l-525.1,131"/>
	<path fill="#F37321" d="M1063.6,1003.5l-131.3,525.1l-393.8-0.2v-393.7l525.1-131"/>
	<path fill="#F15E22" d="M1063.6,2053.7l-525.1-131.3v-394.1l393.8,0.2l131.3,524.6"/>
	<path fill="#F6871F" d="M538.5,1134.8l-393.9,393.9l393.9,393.9l393.8-393.9l-393.8-394"/>
</g>
<g transform="matrix(.63314038 0 0 .63314038 21.66293 -693.31353)">
	<path fill="#FFFFFF" stroke="#141419" stroke-width="1.2663" stroke-miterlimit="6.3314" d="M-33.2,1545.2h31.1v35.1h29.2v-35.1
		h31.1v101.1H27.1v-40.1H-2.1v40.1h-31.1L-33.2,1545.2z"/>
	<path fill="#FFFFFF" stroke="#141419" stroke-width="1.2663" stroke-miterlimit="6.3314" d="M126.8,1610.2l-9.1-31.1h-0.3
		l-9.8,31.1H126.8z M102.3,1545.2h30.4l36.8,101.1h-32.3l-4.2-14.4h-32.1l-4.5,14.4H65l37.3-100.9"/>
	<path fill="#FFFFFF" stroke="#141419" stroke-width="1.2663" stroke-miterlimit="6.3314" d="M203.2,1592.5l-33.3-47.3h36.5
		l15.3,27.4l15-27.5h34.5l-32.4,47.6l36.1,53.5h-37.5l-17.3-30.2l-17.8,30.2h-35.7L203.2,1592.5"/>
	<path fill="#FFFFFF" stroke="#141419" stroke-width="1.2663" stroke-miterlimit="6.3314" d="M281.4,1545.2h83.7v25.9h-52.5v12.6
		h47.7v24.1h-47.7v12.6h54.1v25.9h-85.2V1545.2z"/>
</g>
</svg>
