<?xml version="1.0" encoding="utf-8"?>
<!-- Generator: Adobe Illustrator 28.5.0, SVG Export Plug-In . SVG Version: 9.03 Build 54727)  -->
<svg version="1.2" baseProfile="tiny" id="Layer_1" xmlns="http://www.w3.org/2000/svg" xmlns:xlink="http://www.w3.org/1999/xlink"
	 x="0px" y="0px" viewBox="0 0 6821.5 7122.5" overflow="visible" xml:space="preserve">
<g transform="matrix(.24008588 0 0 .24008588 -2.289055 -240.92061)">
	<path fill="#FBC712" d="M534.7,1134.8l-294.2-26.9L9.6,1003.5h262.6l262.6,131.1"/>
	<path fill="#FBC712" d="M534.7,1134.8l311.8-36.1l213.4-95.2H797.3l-262.6,131.1"/>
	<path fill="#F6871F" d="M534.7,1922.5l262.6,31.3l262.6,100H797.3L534.7,1922.5"/>
	<path fill="#F15E22" d="M534.7,1922.5l-262.6,28.2l-262.6,103h262.6l262.6-131.4"/>
	<path fill="#FCEE23" d="M140.8,1528.6L102,1836.9L9.5,2053.7v-262.5L140.8,1528.6"/>
	<path fill="#FCEE23" d="M140.8,1528.6l-29.5-282.3L9.6,1003.5V1266l131.3,262.4"/>
	<path fill="#F04923" d="M928.5,1528.6l37.9-285.4l93.4-239.7V1266l-131.3,262.4"/>
	<path fill="#F04923" d="M928.5,1528.6l25.6,289.8l105.7,235.3v-262.5L928.5,1528.6"/>
	<path fill="#F8B218" d="M9.6,1003.5l525.1,131.3v393.6H140.8L9.6,1003.7"/>
	<path fill="#F89D1C" d="M9.6,2053.7l131.3-525.1l393.9-0.2v393.8l-525.1,131"/>
	<path fill="#F37321" d="M1059.8,1003.5l-131.3,525.1l-393.8-0.2v-393.7l525.1-131"/>
	<path fill="#F15E22" d="M1059.8,2053.7l-525.1-131.3v-394.1l393.8,0.2l131.3,524.6"/>
	<path fill="#F6871F" d="M534.7,1134.8l-393.9,393.9l393.9,393.9l393.8-393.9L534.7,1134.8"/>
</g>
<path fill="#00CC33" d="M31.5,31.5h189.1v189.1H31.5V31.5z"/>
<path fill="#FFCC33" d="M0,0h63l63,31.5l-94.6,94.6L0,63V0z"/>
<path fill="#FF3366" d="M126.1,31.5l63-31.5h63v63l-31.5,63L126.1,31.5z"/>
<path fill="#3333FF" d="M31.5,126.1l94.6,94.6l-63,31.5H0v-63L31.5,126.1z"/>
<path fill="#00CCFF" d="M220.6,126.1l31.5,63v63h-63l-63-31.5L220.6,126.1z"/>
</svg>
